<?xml version='1.0' encoding='utf-8'?>
<mxfile host="app.diagrams.net" modified="2025-09-20T00:00:00.000Z" version="22.1.11">
  <diagram name="AWS Microservices Architecture" id="microservices_template">
    <mxGraphModel dx="2500" dy="1600" grid="1" gridSize="10" guides="1" tooltips="1" connect="1" arrows="1" fold="1" page="1" pageScale="1" pageWidth="1400" pageHeight="1000">
      <root>
        <mxCell id="0" />
        <mxCell id="1" parent="0" />
        
        <mxCell id="title" value="BMC MICROSERVICES ARCHITECTURE" style="text;html=1;strokeColor=none;fillColor=none;align=center;verticalAlign=middle;whiteSpace=wrap;rounded=0;fontSize=18;fontStyle=1;fontColor=#1976D2;" vertex="1" parent="1">
          <mxGeometry x="400" y="20" width="600" height="30" as="geometry" />
        </mxCell>
        
        <mxCell id="api_gateway" value="API Gateway\n10K req/s throttle\nCustom authorizers" style="shape=mxgraph.aws4.api_gateway;labelPosition=bottom;verticalLabelPosition=top;align=center;verticalAlign=bottom;fillColor=#E3F2FD;strokeColor=#1976D2;fontColor=#0D47A1;" vertex="1" parent="1">
          <mxGeometry x="150" y="120" width="78" height="78" as="geometry" />
        </mxCell>
        
        <mxCell id="cognito" value="Cognito User Pool\nJWT + MFA\nSocial login" style="shape=mxgraph.aws4.cognito;labelPosition=bottom;verticalLabelPosition=top;align=center;verticalAlign=bottom;fillColor=#FFEBEE;strokeColor=#D32F2F;fontColor=#B71C1C;" vertex="1" parent="1">
          <mxGeometry x="400" y="120" width="78" height="78" as="geometry" />
        </mxCell>
        
        <mxCell id="alb" value="Application LB\nHealth checks\nSticky sessions" style="shape=mxgraph.aws4.application_load_balancer;labelPosition=bottom;verticalLabelPosition=top;align=center;verticalAlign=bottom;fillColor=#E3F2FD;strokeColor=#1976D2;fontColor=#0D47A1;" vertex="1" parent="1">
          <mxGeometry x="650" y="120" width="78" height="78" as="geometry" />
        </mxCell>
        
        <mxCell id="invoice_task" value="Invoice Task\n2vCPU/4GB\nPort: 8000" style="shape=mxgraph.aws4.fargate;labelPosition=bottom;verticalLabelPosition=top;align=center;verticalAlign=bottom;fillColor=#FFF3E0;strokeColor=#FF9800;fontColor=#E65100;" vertex="1" parent="1">
          <mxGeometry x="120" y="350" width="78" height="78" as="geometry" />
        </mxCell>
        
        <mxCell id="product_task" value="Product Task\n4vCPU/8GB\n60M products" style="shape=mxgraph.aws4.fargate;labelPosition=bottom;verticalLabelPosition=top;align=center;verticalAlign=bottom;fillColor=#FFF3E0;strokeColor=#FF9800;fontColor=#E65100;" vertex="1" parent="1">
          <mxGeometry x="370" y="350" width="78" height="78" as="geometry" />
        </mxCell>
        
        <mxCell id="ocr_task" value="OCR Task\n4vCPU/8GB\nTextract" style="shape=mxgraph.aws4.fargate;labelPosition=bottom;verticalLabelPosition=top;align=center;verticalAlign=bottom;fillColor=#FFF3E0;strokeColor=#FF9800;fontColor=#E65100;" vertex="1" parent="1">
          <mxGeometry x="620" y="350" width="78" height="78" as="geometry" />
        </mxCell>
        
        <mxCell id="rds" value="RDS PostgreSQL\ndb.r6g.2xlarge\nMulti-AZ" style="shape=mxgraph.aws4.rds;labelPosition=bottom;verticalLabelPosition=top;align=center;verticalAlign=bottom;fillColor=#E8F5E8;strokeColor=#4CAF50;fontColor=#2E7D32;" vertex="1" parent="1">
          <mxGeometry x="150" y="580" width="78" height="78" as="geometry" />
        </mxCell>
        
        <mxCell id="redis" value="ElastiCache Redis\n6 nodes\nCluster mode" style="shape=mxgraph.aws4.elasticache;labelPosition=bottom;verticalLabelPosition=top;align=center;verticalAlign=bottom;fillColor=#E8F5E8;strokeColor=#4CAF50;fontColor=#2E7D32;" vertex="1" parent="1">
          <mxGeometry x="400" y="580" width="78" height="78" as="geometry" />
        </mxCell>
        
        <mxCell id="s3" value="S3 Documents\nVersioning\nLifecycle" style="shape=mxgraph.aws4.s3;labelPosition=bottom;verticalLabelPosition=top;align=center;verticalAlign=bottom;fillColor=#E8F5E8;strokeColor=#4CAF50;fontColor=#2E7D32;" vertex="1" parent="1">
          <mxGeometry x="650" y="580" width="78" height="78" as="geometry" />
        </mxCell>
        
        <mxCell id="textract" value="Amazon Textract\n95% accuracy\nForms + Tables" style="shape=mxgraph.aws4.textract;labelPosition=bottom;verticalLabelPosition=top;align=center;verticalAlign=bottom;fillColor=#F3E5F5;strokeColor=#9C27B0;fontColor=#4A148C;" vertex="1" parent="1">
          <mxGeometry x="900" y="580" width="78" height="78" as="geometry" />
        </mxCell>
        
        <mxCell id="conn1" style="edgeStyle=orthogonalEdgeStyle;rounded=0;orthogonalLoop=1;jettySize=auto;html=1;strokeColor=#1976D2;strokeWidth=2;" edge="1" parent="1" source="api_gateway" target="cognito">
          <mxGeometry relative="1" as="geometry" />
        </mxCell>
        
        <mxCell id="conn2" style="edgeStyle=orthogonalEdgeStyle;rounded=0;orthogonalLoop=1;jettySize=auto;html=1;strokeColor=#1976D2;strokeWidth=2;" edge="1" parent="1" source="cognito" target="alb">
          <mxGeometry relative="1" as="geometry" />
        </mxCell>
        
        <mxCell id="conn3" style="edgeStyle=orthogonalEdgeStyle;rounded=0;orthogonalLoop=1;jettySize=auto;html=1;strokeColor=#FF9800;strokeWidth=2;" edge="1" parent="1" source="alb" target="invoice_task">
          <mxGeometry relative="1" as="geometry" />
        </mxCell>
        
        <mxCell id="conn4" style="edgeStyle=orthogonalEdgeStyle;rounded=0;orthogonalLoop=1;jettySize=auto;html=1;strokeColor=#FF9800;strokeWidth=2;" edge="1" parent="1" source="alb" target="product_task">
          <mxGeometry relative="1" as="geometry" />
        </mxCell>
        
        <mxCell id="conn5" style="edgeStyle=orthogonalEdgeStyle;rounded=0;orthogonalLoop=1;jettySize=auto;html=1;strokeColor=#FF9800;strokeWidth=2;" edge="1" parent="1" source="alb" target="ocr_task">
          <mxGeometry relative="1" as="geometry" />
        </mxCell>
        
        <mxCell id="conn6" style="edgeStyle=orthogonalEdgeStyle;rounded=0;orthogonalLoop=1;jettySize=auto;html=1;strokeColor=#4CAF50;strokeWidth=2;" edge="1" parent="1" source="invoice_task" target="rds">
          <mxGeometry relative="1" as="geometry" />
        </mxCell>
        
        <mxCell id="conn7" style="edgeStyle=orthogonalEdgeStyle;rounded=0;orthogonalLoop=1;jettySize=auto;html=1;strokeColor=#4CAF50;strokeWidth=2;" edge="1" parent="1" source="product_task" target="redis">
          <mxGeometry relative="1" as="geometry" />
        </mxCell>
        
        <mxCell id="conn8" style="edgeStyle=orthogonalEdgeStyle;rounded=0;orthogonalLoop=1;jettySize=auto;html=1;strokeColor=#4CAF50;strokeWidth=2;" edge="1" parent="1" source="product_task" target="rds">
          <mxGeometry relative="1" as="geometry" />
        </mxCell>
        
        <mxCell id="conn9" style="edgeStyle=orthogonalEdgeStyle;rounded=0;orthogonalLoop=1;jettySize=auto;html=1;strokeColor=#9C27B0;strokeWidth=2;" edge="1" parent="1" source="ocr_task" target="textract">
          <mxGeometry relative="1" as="geometry" />
        </mxCell>
        
        <mxCell id="conn10" style="edgeStyle=orthogonalEdgeStyle;rounded=0;orthogonalLoop=1;jettySize=auto;html=1;strokeColor=#4CAF50;strokeWidth=2;" edge="1" parent="1" source="ocr_task" target="s3">
          <mxGeometry relative="1" as="geometry" />
        </mxCell>
        
      </root>
    </mxGraphModel>
  </diagram>
</mxfile>